<svg viewBox="0 0 767.45669 518.9454" xmlns="http://www.w3.org/2000/svg" data-name="Layer 1">
 <title>diet</title>

 <g>
  <title>Layer 1</title>
  <ellipse id="svg_1" fill="#e6e6e6" ry="9.21197" rx="122.36614" cy="509.73343" cx="645.09055"/>
  <path id="svg_2" fill="#3f3d56" d="m154.63766,242.92711c0.03921,-9.376 -7.94859,-17.04521 -17.32464,-17.04521l-87.0032,0c-9.22781,0 -17.20059,7.54238 -17.30863,16.76955a16.93583,16.93583 0 0 0 6.57038,13.61051a3.78857,3.78857 0 0 1 1.5005,3.46787a16.85347,16.85347 0 0 0 -0.15147,2.25584l0,60.17963a16.86805,16.86805 0 0 0 16.86805,16.86806l71.49478,0a16.868,16.868 0 0 0 16.868,-16.868l0,-60.17966a16.95686,16.95686 0 0 0 -0.11521,-1.97565a3.65945,3.65945 0 0 1 1.53937,-3.37824a16.94627,16.94627 0 0 0 7.06207,-13.7047z"/>
  <path id="svg_3" fill="#00b0ff" d="m150.86988,241.27613a13.49549,13.49549 0 0 0 -13.50466,-11.71681l-87.08135,0a13.528,13.528 0 0 0 -13.30095,10.4778a13.31676,13.31676 0 0 0 6.36476,14.342a3.66255,3.66255 0 0 1 1.71427,4.147a13.0587,13.0587 0 0 0 -0.46393,3.46243l0,60.17393a13.198,13.198 0 0 0 10.74939,12.96715a13.35794,13.35794 0 0 0 2.44407,0.22631l71.49474,0a13.04609,13.04609 0 0 0 3.56993,-0.4922a13.19106,13.19106 0 0 0 9.61787,-12.6956l0,-60.18527a13.13232,13.13232 0 0 0 -0.40732,-3.24745a3.76774,3.76774 0 0 1 -0.11316,-0.89956a3.66833,3.66833 0 0 1 1.9462,-3.23612l0.00567,-0.00566a13.28987,13.28987 0 0 0 6.96447,-13.31795z"/>
  <path id="svg_4" opacity="0.2" d="m142.47402,267.74793l0,-5.65757l-9.61787,0l0,-32.531l-5.65757,0l0,32.531l-30.268,0l0,-32.531l-5.65758,0l0,32.531l-30.268,0l0,-32.531l-5.65757,0l0,32.531l-10.74941,0l0,5.65757l10.74939,0l0,16.97277l-10.74939,0l0,5.65757l10.74939,0l0,16.97272l-10.74939,0l0,5.65757l10.74939,0l0,22.1211a13.35794,13.35794 0 0 0 2.44407,0.22631l3.2135,0l0,-22.34746l30.268,0l0,22.34741l5.65758,0l0,-22.34741l30.268,0l0,22.34741l2.08764,0a13.04609,13.04609 0 0 0 3.56993,-0.4922l0,-21.85521l9.61787,0l0,-5.65757l-9.61785,0l0,-16.97272l9.61787,0l0,-5.65752l-9.61787,0l0,-16.97277l9.61787,0zm-81.469,0l30.268,0l0,16.97277l-30.268,0l0,-16.97277zm0,39.603l0,-16.97271l30.268,0l0,16.97272l-30.268,-0.00001zm66.1936,0l-30.268,0l0,-16.97271l30.268,0l0,16.97271zm0,-22.63029l-30.268,0l0,-16.97271l30.268,0l0,16.97271z"/>
  <path id="svg_5" fill="#00b0ff" d="m154.24127,100a60.42237,60.42237 0 1 1 -120.84474,0l120.84474,0z"/>
  <path id="svg_7" fill="#3f3d56" d="m118.84592,120.7367c0,1.57966 -0.56025,2.86023 -1.25135,2.86023s-1.25135,-1.28057 -1.25135,-2.86023a4.6615,4.6615 0 0 1 1.25135,-2.86023a4.6615,4.6615 0 0 1 1.25135,2.86023z"/>
  <path id="svg_8" fill="#3f3d56" d="m72.36717,115.01621c0,1.57966 -0.56025,2.86023 -1.25135,2.86023s-1.25135,-1.28057 -1.25135,-2.86023a4.6615,4.6615 0 0 1 1.25135,-2.86023a4.6615,4.6615 0 0 1 1.25135,2.86023z"/>
  <path id="svg_9" fill="#3f3d56" d="m97.39419,137.54053c0,1.57966 -0.56025,2.86023 -1.25135,2.86023s-1.25135,-1.28057 -1.25135,-2.86023a4.6615,4.6615 0 0 1 1.25135,-2.86023a4.6615,4.6615 0 0 1 1.25135,2.86023z"/>
  <path stroke="null" style="vector-effect: non-scaling-stroke;" id="svg_10" fill="#3f3d56"/>
  <path id="svg_11" fill="#3f3d56" d="m133.14707,107.86563c0,1.57967 -0.56025,2.86024 -1.25135,2.86024s-1.25135,-1.28057 -1.25135,-2.86024a4.6615,4.6615 0 0 1 1.25135,-2.86023a4.6615,4.6615 0 0 1 1.25135,2.86023z"/>
  <path id="svg_13" fill="#3f3d56" d="m93.8189,163.8189a63.89126,63.89126 0 0 1 -63.8189,-63.8189l6.793,0a57.02585,57.02585 0 1 0 114.0517,0l6.793,0a63.89126,63.89126 0 0 1 -63.8188,63.8189z"/>
  <rect id="svg_14" fill="#3f3d56" height="20" width="20" y="121.90945" x="220.8189"/>
  <rect id="svg_15" fill="#3f3d56" height="2" width="161" y="130.90945" x="275.8189"/>
  <rect id="svg_16" fill="#3f3d56" height="20" width="20" y="272.45762" x="220.8189"/>
  <rect id="svg_17" fill="#3f3d56" height="2" width="161" y="281.45762" x="275.8189"/>
  <rect id="svg_18" fill="#3f3d56" height="20" width="20" y="421.95928" x="220.8189"/>
  <rect id="svg_19" fill="#3f3d56" height="2" width="161" y="430.95928" x="275.8189"/>
  <path id="svg_20" fill="#a0616a" d="m632.32445,137.3444l-25.5481,20.13719l-54.13541,-19.02589s-18.4063,-20.70326 -28.81476,-5.2831c-3.56469,5.28109 19.78367,15.03777 21.98638,15.94449c5.50677,2.2668 58.25833,31.20711 63.42758,27.41029s34.25345,-23.00068 34.25345,-23.00068l-11.16914,-16.1823z"/>
  <path id="svg_21" fill="#2f2e41" d="m719.53442,102.99288c-24.21353,-9.04778 -47.2472,-13.32858 -65.92215,0l0,-43.017a32.961,32.961 0 0 1 32.961,-32.961l0.00007,0a32.961,32.961 0 0 1 32.961,32.96105l0.00008,43.01695z"/>
  <path id="svg_22" fill="#2f2e41" d="m658.69305,196.96418l-1.97859,13.85007s-4.94645,14.83936 0,42.5395l-79.6379,217.1493l58.86279,16.81795l29.18407,-118.71489l41.05557,-90.52009l-3.95716,102.88623l-20.7751,109.81126l61.336,-2.47322l17.87333,-188.29338a166.79258,166.79258 0 0 0 -14.94512,-86.82478c-4.95829,-10.53 -10.28946,-18.82906 -15.12686,-20.0337c-14.51218,-3.61393 -71.89103,3.80575 -71.89103,3.80575z"/>
  <path id="svg_23" fill="#2f2e41" d="m584.49624,469.01912l-20.28045,21.76439s-39.077,20.28046 -11.37685,22.75369s37.0984,-8.409 37.0984,-8.409s34.62518,-2.47323 34.13053,-7.41968s-2.96787,-21.26975 -2.96787,-21.26975l-36.60376,-7.41965z"/>
  <path id="svg_24" fill="#2f2e41" d="m694.55483,474.267l0,15.334s0.49465,6.43039 0,7.91432s-7.91432,19.78582 16.81794,15.82865s14.83936,-19.29116 14.83936,-19.29116l-5.93574,-22.259l-25.72156,2.47319z"/>
  <circle id="svg_25" fill="#a0616a" r="24.85593" cy="65.26486" cx="686.26952"/>
  <path id="svg_26" fill="#a0616a" d="m703.45845,78.99127s-3.46252,32.64659 0,38.58233s-35.11982,-5.93574 -35.11982,-5.93574s8.409,-22.259 5.4411,-31.16266s29.67872,-1.48393 29.67872,-1.48393z"/>
  <path id="svg_27" fill="#e6e6e6" d="m723.24426,172.97388l7.91433,21.7644l-73.70216,8.409s-7.91432,-1.48394 -7.91432,-7.91433s-8.409,-29.18407 -8.409,-29.18407s-20.5947,-16.69242 -30.48761,-21.14423c-3.58618,-1.61255 1.77837,-0.94665 4.79576,-7.79252c0.90524,-2.05775 1.98848,-4.22922 3.17063,-6.43039c0.96453,-1.80547 2.00334,-3.63566 3.06678,-5.4411c1.29107,-2.20118 2.62164,-4.36773 3.91272,-6.43039c3.90765,-6.23747 7.474,-11.48073 8.61668,-13.60275c3.46252,-6.43039 36.01516,-7.00419 36.01516,-7.00419c9.30914,5.85661 36.20306,7.00419 36.20306,7.00419s18.49969,7.74118 26.2063,13.60275c0.55892,0.42045 -9.38833,54.16363 -9.38833,54.16363z"/>
  <path id="svg_28" fill="#2f2e41" d="m707.24385,35.42631l0,-0.59023l-0.70153,0.039a32.98613,32.98613 0 0 0 -28.34891,-5.66484a32.84353,32.84353 0 0 1 12.65187,6.53687l-23.82512,1.32359l-10.05592,22.34649l6.80549,0l5.48508,-10.05592l0,10.05592l23.01686,0l1.56428,-7.82127l4.34519,7.82127l4.52221,0c0.028,0.55764 0.07119,1.11132 0.07119,1.67592l-4.4693,43.01707l21.22917,-8.9386l0,-34.07844a32.89189,32.89189 0 0 0 -12.29056,-25.66683z"/>
  <path id="svg_29" fill="#a0616a" d="m740.55685,149.23091l-1.48394,39.077l-3.95716,75.68074s5.4411,32.64659 -8.409,32.15194s-3.46252,-38.58233 -3.46252,-38.58233l-3.95716,-59.85209l3.95716,-42.04485l17.31262,-6.43041z"/>
  <path id="svg_30" fill="#e6e6e6" d="m744.51401,170.5007c0,4.4518 -24.97959,3.21519 -24.97959,3.21519l-13.10807,-68.50842s18.49969,7.74118 26.2063,13.60275a23.23,23.23 0 0 1 4.38756,6.43039c0.5886,1.58779 1.14749,3.42789 1.6768,5.4411c0.52435,1.99835 1.014,4.16985 1.474,6.43039a263.16223,263.16223 0 0 1 4.343,33.3886z"/>
  <path id="svg_31" fill="#ccc" d="m93.14614,429.4236l-37.86207,-3.92015a12.01987,12.01987 0 1 0 -20.69612,6.466a12.02549,12.02549 0 1 0 20.56292,5.55936l37.99527,-3.49266l0,-4.61255z"/>
  <path id="svg_32" fill="#00b0ff" d="m131.6479,455.44616c14.88426,3.66007 29.87864,-6.89711 30.6546,-22.20512q0.03228,-0.6368 0.03241,-1.28176t-0.03241,-1.28176c-0.776,-15.308 -15.77034,-25.86518 -30.6546,-22.20512l-50.49448,12.41668a11.07021,11.07021 0 1 0 0,22.14041l50.49448,12.41667z"/>
  <path transform="rotate(-180 76.8189 70.9204)" id="svg_42" fill="#00b0ff" d="m119.24127,40.70922a60.42237,60.42237 0 1 1 -120.84474,0l120.84474,0z"/>
  <path id="svg_48" fill="#3f3d56" d="m110.26523,103.26099c0,1.57966 -0.56025,2.86023 -1.25135,2.86023s-1.25135,-1.28057 -1.25135,-2.86023a4.6615,4.6615 0 0 1 1.25135,-2.86023a4.6615,4.6615 0 0 1 1.25135,2.86023z"/>
  <path transform="rotate(-180 93.8188 69.7818)" id="svg_49" fill="#3f3d56" d="m93.8189,101.69124a63.89126,63.89126 0 0 1 -63.8189,-63.8189l6.793,0a57.02585,57.02585 0 1 0 114.0517,0l6.793,0a63.89126,63.89126 0 0 1 -63.8188,63.8189z"/>
  <path id="svg_50" fill="#3f3d56" d="m118.84592,73.1906c0,1.57966 -0.56025,2.86023 -1.25135,2.86023s-1.25135,-1.28057 -1.25135,-2.86023a4.6615,4.6615 0 0 1 1.25135,-2.86023a4.6615,4.6615 0 0 1 1.25135,2.86023z"/>
  <path id="svg_51" fill="#3f3d56" d="m66.84592,65.1906c0,1.57966 -0.56025,2.86023 -1.25135,2.86023s-1.25135,-1.28057 -1.25135,-2.86023a4.6615,4.6615 0 0 1 1.25135,-2.86023a4.6615,4.6615 0 0 1 1.25135,2.86023z"/>
  <path id="svg_52" fill="#3f3d56" d="m88.84592,90.7367c0,1.57966 -0.56025,2.86023 -1.25135,2.86023s-1.25135,-1.28057 -1.25135,-2.86023a4.6615,4.6615 0 0 1 1.25135,-2.86023a4.6615,4.6615 0 0 1 1.25135,2.86023z"/>
  <path id="svg_53" fill="#3f3d56" d="m48.84592,100.7367c0,1.57966 -0.56025,2.86023 -1.25135,2.86023s-1.25135,-1.28057 -1.25135,-2.86023a4.6615,4.6615 0 0 1 1.25135,-2.86023a4.6615,4.6615 0 0 1 1.25135,2.86023z"/>
  <text style="cursor: default;" font-style="normal" font-weight="normal" xml:space="preserve" text-anchor="start" font-family="'Anton'" font-size="24" id="svg_56" y="421.52731" x="295.47167" stroke-width="0" fill="#3f3d56">253 calories</text>
  <text style="cursor: default;" font-style="normal" font-weight="normal" xml:space="preserve" text-anchor="start" font-family="'Anton'" font-size="24" id="svg_59" y="271.52731" x="295.47167" stroke-width="0" fill="#3f3d56">152 calories</text>
  <text style="cursor: default;" font-style="normal" font-weight="normal" xml:space="preserve" text-anchor="start" font-family="'Anton'" font-size="24" id="svg_60" y="121.52731" x="295.47167" stroke-width="0" fill="#3f3d56">104 calories</text>
 </g>
</svg>